<svg width="36" height="36" viewBox="0 0 36 36" fill="none" xmlns="http://www.w3.org/2000/svg">
  <rect width="36" height="36" rx="18" fill="#E2E8F0"/>
  <path d="M18 12C16.9 12 15.9583 12.3917 15.275 13.175C14.5917 13.9583 14.2 14.9 14.2 16C14.2 17.1 14.5917 18.0417 15.275 18.825C15.9583 19.6083 16.9 20 18 20C19.1 20 20.0417 19.6083 20.725 18.825C21.4083 18.0417 21.8 17.1 21.8 16C21.8 14.9 21.4083 13.9583 20.725 13.175C20.0417 12.3917 19.1 12 18 12ZM18 18.8C17.2667 18.8 16.6417 18.5417 16.125 18.025C15.6083 17.5083 15.35 16.8833 15.35 16.15C15.35 15.4167 15.6083 14.7917 16.125 14.275C16.6417 13.7583 17.2667 13.5 18 13.5C18.7333 13.5 19.3583 13.7583 19.875 14.275C20.3917 14.7917 20.65 15.4167 20.65 16.15C20.65 16.8833 20.3917 17.5083 19.875 18.025C19.3583 18.5417 18.7333 18.8 18 18.8ZM18 6C19.9333 6 21.7333 6.39167 23.4 7.175C25.0667 7.95833 26.4583 9.05 27.575 10.45C28.6917 11.85 29.25 13.4 29.25 15.1V24.9C29.25 25.5667 29.0333 26.1417 28.6 26.625C28.1667 27.1083 27.6333 27.35 27 27.35H9C8.33333 27.35 7.79167 27.1083 7.375 26.625C6.95833 26.1417 6.75 25.5667 6.75 24.9V15.1C6.75 13.4 7.30833 11.85 8.425 10.45C9.54167 9.05 10.9333 7.95833 12.6 7.175C14.2667 6.39167 16.0667 6 18 6ZM9 25.85H27C27.2333 25.85 27.4333 25.7667 27.6 25.6C27.7667 25.4333 27.85 25.2333 27.85 25V15.1C27.85 13.7 27.3917 12.4417 26.475 11.325C25.5583 10.2083 24.3833 9.34167 22.95 8.725C21.5167 8.10833 19.9333 7.8 18.2 7.8C16.4667 7.8 14.8833 8.10833 13.45 8.725C12.0167 9.34167 10.8417 10.2083 9.925 11.325C9.00833 12.4417 8.55 13.7 8.55 15.1V25C8.55 25.2333 8.63333 25.4333 8.8 25.6C8.96667 25.7667 9.16667 25.85 9.4 25.85H9Z" fill="#94A3B8"/>
</svg>
